HIERARCHY
ROOT joint_Root
{
	OFFSET 0.0 0.0 0.0
	CHANNELS 6 Xposition Yposition Zposition Zrotation Xrotation Yrotation 
	JOINT Hips
	{
		OFFSET -17.1583 93.1646 452.98
		CHANNELS 6 Xposition Yposition Zposition Zrotation Xrotation Yrotation 
		JOINT Spine
		{
			OFFSET 15.7357 0.0 0.0
			CHANNELS 6 Xposition Yposition Zposition Zrotation Xrotation Yrotation 
			JOINT Chest
			{
				OFFSET 8.98455 -0.406207 0.0
				CHANNELS 6 Xposition Yposition Zposition Zrotation Xrotation Yrotation 
				JOINT Neck
				{
					OFFSET 16.3773 0.0 0.0
					CHANNELS 6 Xposition Yposition Zposition Zrotation Xrotation Yrotation 
					JOINT Head
					{
						OFFSET 6.45672 0.0 0.0
						CHANNELS 6 Xposition Yposition Zposition Zrotation Xrotation Yrotation 
						End Site
						{
							OFFSET 0.0 0.0 0.0
						}
					}
				}
				JOINT Shoulder_L
				{
					OFFSET 12.9942 -0.242716 4.98039
					CHANNELS 6 Xposition Yposition Zposition Zrotation Xrotation Yrotation 
					JOINT UpperArm_L
					{
						OFFSET 5.34809 0.0 0.0
						CHANNELS 6 Xposition Yposition Zposition Zrotation Xrotation Yrotation 
						JOINT LowerArm_L
						{
							OFFSET 24.3286 1.87007e-05 0.0
							CHANNELS 6 Xposition Yposition Zposition Zrotation Xrotation Yrotation 
							JOINT Hand_L
							{
								OFFSET 22.2916 0.0 0.0
								CHANNELS 6 Xposition Yposition Zposition Zrotation Xrotation Yrotation 
								End Site
								{
									OFFSET 0.0 0.0 0.0
								}
							}
						}
					}
				}
				JOINT Shoulder_R
				{
					OFFSET 12.9945 -0.242716 -4.98039
					CHANNELS 6 Xposition Yposition Zposition Zrotation Xrotation Yrotation 
					JOINT UpperArm_R
					{
						OFFSET -5.34813 0.0 0.0
						CHANNELS 6 Xposition Yposition Zposition Zrotation Xrotation Yrotation 
						JOINT LowerArm_R
						{
							OFFSET -24.3289 0.000322201 0.0
							CHANNELS 6 Xposition Yposition Zposition Zrotation Xrotation Yrotation 
							JOINT Hand_R
							{
								OFFSET -22.2915 -0.000108084 0.0
								CHANNELS 6 Xposition Yposition Zposition Zrotation Xrotation Yrotation 
								End Site
								{
									OFFSET 0.0 0.0 0.0
								}
							}
						}
					}
				}
			}
		}
		JOINT UpperLeg_L
		{
			OFFSET -2.19248 -6.46944 0.0
			CHANNELS 6 Xposition Yposition Zposition Zrotation Xrotation Yrotation 
			JOINT LowerLeg_L
			{
				OFFSET 39.0811 0.0 -1.23785e-05
				CHANNELS 6 Xposition Yposition Zposition Zrotation Xrotation Yrotation 
				JOINT Foot_L
				{
					OFFSET 40.9854 0.0 -1.26872e-05
					CHANNELS 6 Xposition Yposition Zposition Zrotation Xrotation Yrotation 
					JOINT Toes_L
					{
						OFFSET 11.7543 0.0 0.0
						CHANNELS 6 Xposition Yposition Zposition Zrotation Xrotation Yrotation 
						End Site
						{
							OFFSET 0.0 0.0 0.0
						}
					}
				}
			}
		}
		JOINT UpperLeg_R
		{
			OFFSET -2.19251 6.46944 0.0
			CHANNELS 6 Xposition Yposition Zposition Zrotation Xrotation Yrotation 
			JOINT LowerLeg_R
			{
				OFFSET -39.0811 -0.00228153 -0.0401928
				CHANNELS 6 Xposition Yposition Zposition Zrotation Xrotation Yrotation 
				JOINT Foot_R
				{
					OFFSET -40.9854 0.0 0.0
					CHANNELS 6 Xposition Yposition Zposition Zrotation Xrotation Yrotation 
					JOINT Toes_R
					{
						OFFSET -11.7543 0.0 0.0
						CHANNELS 6 Xposition Yposition Zposition Zrotation Xrotation Yrotation 
						End Site
						{
							OFFSET 0.0 0.0 0.0
						}
					}
				}
			}
		}
	}
}
MOTION
Frames:	4
Frame Time:	0.0333333
0.000000 0.000000 0.000000 0.000000 0.000000 -0.000000 141.301000 89.958500 191.275000 -90.440200 34.093600 -177.520000 15.735700 0.000005 -0.000001 82.448900 85.793600 -82.254900 8.984550 -0.406207 -0.000000 0.575935 -1.117340 0.393512 16.377300 -0.000001 -0.000001 8.345460 10.913200 -6.351810 6.456720 -0.000001 -0.000000 0.046632 15.275400 -4.618440 12.994200 -0.242716 4.980390 -93.223800 7.635380 -67.027000 5.348090 -0.000007 -0.000001 -74.420300 1.625930 0.965026 24.328600 0.000019 0.000005 7.898930 19.559600 -22.504200 22.291600 -0.000001 0.000005 46.522500 4.469660 17.098400 12.994500 -0.242716 -4.980390 88.798300 3.482040 -70.945400 -5.348130 -0.000001 -0.000004 -72.799600 13.400700 -1.235250 -24.328900 0.000322 -0.000009 4.521220 13.850100 -18.284100 -22.291500 -0.000108 -0.000004 33.968300 5.403450 -3.047640 -2.192480 -6.469440 -0.000000 167.245000 0.022310 -11.144700 39.081100 -0.000007 -0.000012 0.370851 -0.696519 28.033300 40.985400 -0.000006 -0.000013 14.556300 4.716440 -68.566100 11.754300 -0.000000 0.000003 -0.000600 0.177172 -9.390230 -2.192510 6.469440 -0.000001 171.520000 5.638140 161.790000 -39.081100 -0.002282 -0.040193 0.293964 -0.110576 69.183700 -40.985400 0.000008 0.000006 -9.329590 -2.870520 -43.449600 -11.754300 -0.000006 -0.000006 -0.000783 0.179939 -9.274330
0.000000 0.000000 0.000000 0.000000 0.000000 -0.000000 143.794000 90.823700 188.840000 -88.862300 30.153300 -177.953000 15.735700 0.000005 -0.000001 76.133700 85.561300 -75.281400 8.984550 -0.406207 -0.000000 0.870319 -2.178000 1.720030 16.377300 -0.000001 -0.000001 8.091740 10.132500 -6.560890 6.456720 -0.000001 -0.000000 0.147427 14.495000 -5.196310 12.994200 -0.242716 4.980390 -93.150400 7.667370 -67.582700 5.348090 -0.000007 -0.000001 -75.107800 9.103100 -0.965662 24.328600 0.000019 0.000005 12.639300 22.159400 -30.720500 22.291600 -0.000001 0.000005 46.647600 4.490440 16.756800 12.994500 -0.242716 -4.980390 88.973500 2.937380 -70.726900 -5.348130 -0.000001 -0.000004 -73.557100 11.202200 1.327860 -24.328900 0.000322 -0.000009 3.569220 15.063100 -13.502200 -22.291500 -0.000108 -0.000004 33.063000 5.387530 -2.536040 -2.192480 -6.469440 -0.000000 169.263000 1.961740 -5.666220 39.081100 -0.000007 -0.000012 0.273835 -0.616909 23.936100 40.985400 -0.000006 -0.000013 14.427900 6.742910 -69.274300 11.754300 -0.000000 0.000003 -0.000110 0.169462 -9.703410 -2.192510 6.469440 -0.000001 173.454000 4.336320 159.181000 -39.081100 -0.002282 -0.040193 0.178592 -0.078775 65.818500 -40.985400 0.000008 0.000006 -7.445300 -8.101430 -51.955400 -11.754300 -0.000006 -0.000006 -0.000694 0.178631 -9.327480
0.000000 0.000000 0.000000 0.000000 0.000000 -0.000000 146.229000 91.640500 186.628000 -87.271200 25.560800 -178.929000 15.735700 0.000005 -0.000001 68.618200 85.379100 -67.070700 8.984550 -0.406207 -0.000000 0.890457 -3.460910 3.120210 16.377300 -0.000001 -0.000001 7.348990 9.182240 -6.400040 6.456720 -0.000001 -0.000000 0.085748 13.586900 -5.709570 12.994200 -0.242716 4.980390 -93.055100 7.707940 -68.300800 5.348090 -0.000007 -0.000001 -74.902400 13.709500 -2.886720 24.328600 0.000019 0.000005 19.769200 24.958300 -40.416700 22.291600 -0.000001 0.000005 45.632200 4.603510 14.852000 12.994500 -0.242716 -4.980390 89.112400 2.508130 -70.504100 -5.348130 -0.000001 -0.000004 -73.793900 9.549580 3.680290 -24.328900 0.000322 -0.000009 2.780720 16.541200 -9.686090 -22.291500 -0.000108 -0.000004 32.348700 5.364810 -1.825260 -2.192480 -6.469440 -0.000000 171.730000 4.591420 -0.976754 39.081100 -0.000007 -0.000012 0.154434 -0.440049 19.338600 40.985400 -0.000006 -0.000013 13.202200 9.135800 -69.017400 11.754300 -0.000000 0.000003 0.000807 0.152717 -10.383300 -2.192510 6.469440 -0.000001 175.050000 3.742830 157.411000 -39.081100 -0.002282 -0.040193 0.117871 -0.070550 58.396400 -40.985400 0.000008 0.000006 -7.304220 -14.290100 -57.495400 -11.754300 -0.000006 -0.000006 -0.001294 0.187168 -8.980570
0.000000 0.000000 0.000000 0.000000 0.000000 -0.000000 148.576000 92.284400 184.419000 -86.570000 20.737900 -179.476000 15.735700 0.000005 -0.000001 61.556100 85.119000 -59.624800 8.984550 -0.406207 -0.000000 0.905004 -4.763450 3.898900 16.377300 -0.000001 -0.000001 6.396560 8.227490 -5.814380 6.456720 -0.000001 -0.000000 -0.156875 12.406200 -6.069840 12.994200 -0.242716 4.980390 -92.886700 7.586100 -69.095500 5.348090 -0.000007 -0.000001 -73.928000 17.415900 -5.463170 24.328600 0.000019 0.000005 25.434000 24.608700 -48.789700 22.291600 -0.000001 0.000005 45.187600 4.652310 14.005000 12.994500 -0.242716 -4.980390 89.212800 2.207590 -70.369400 -5.348130 -0.000001 -0.000004 -73.874700 7.818630 6.153470 -24.328900 0.000322 -0.000009 2.256030 17.981700 -7.276340 -22.291500 -0.000108 -0.000004 31.675700 5.338860 -1.044690 -2.192480 -6.469440 -0.000000 174.065000 6.887680 2.630350 39.081100 -0.000007 -0.000012 0.038758 -0.140030 15.471400 40.985400 -0.000006 -0.000013 7.854040 12.687600 -67.027000 11.754300 -0.000000 0.000003 0.001102 0.146383 -10.640300 -2.192510 6.469440 -0.000001 175.386000 3.625810 157.358000 -39.081100 -0.002282 -0.040193 0.080080 -0.070463 47.472800 -40.985400 0.000008 0.000006 -7.891110 -19.340500 -61.673700 -11.754300 -0.000006 -0.000006 -0.001731 0.192969 -8.744730
